<svg id="Groupe_361" data-name="Groupe 361" xmlns="http://www.w3.org/2000/svg" xmlns:xlink="http://www.w3.org/1999/xlink" width="187.982" height="42.182" viewBox="0 0 187.982 42.182">
  <defs>
    <clipPath id="clip-path">
      <rect id="Rectangle_19" data-name="Rectangle 19" width="187.982" height="42.182"/>
    </clipPath>
    <linearGradient id="linear-gradient" y1="1" x2="1" gradientUnits="objectBoundingBox">
      <stop offset="0" stop-color="#005387"/>
      <stop offset="1"/>
    </linearGradient>
  </defs>
  <g id="Groupe_18" data-name="Groupe 18" clip-path="url(#clip-path)">
    <path id="Tracé_63" data-name="Tracé 63" d="M227.028,67.571a8.531,8.531,0,0,1-2.715-.432,6.911,6.911,0,0,1-2.271-1.245,4.684,4.684,0,0,1-1.406-1.943l3.388-1.2a1.469,1.469,0,0,0,.535.646,3.5,3.5,0,0,0,1.051.513,4.675,4.675,0,0,0,1.418.2,4.466,4.466,0,0,0,1.358-.2,2.768,2.768,0,0,0,1.033-.559,1.087,1.087,0,0,0,.4-.83.97.97,0,0,0-.415-.8,3.241,3.241,0,0,0-1.057-.507,8.875,8.875,0,0,0-1.316-.283,13.877,13.877,0,0,1-3.274-.836,5.523,5.523,0,0,1-2.283-1.608,3.992,3.992,0,0,1-.835-2.606,4.168,4.168,0,0,1,.889-2.646,5.9,5.9,0,0,1,2.349-1.77,7.829,7.829,0,0,1,3.154-.634,8.594,8.594,0,0,1,2.721.432,6.847,6.847,0,0,1,2.277,1.251,4.618,4.618,0,0,1,1.394,1.96l-3.388,1.176a1.439,1.439,0,0,0-.535-.64,3.493,3.493,0,0,0-1.051-.5,4.807,4.807,0,0,0-1.418-.2,4.054,4.054,0,0,0-1.334.2,2.957,2.957,0,0,0-1.045.565,1.056,1.056,0,0,0-.408.807,1.113,1.113,0,0,0,.384.928,2.351,2.351,0,0,0,1.015.432q.631.127,1.388.231a12.415,12.415,0,0,1,3.184.865A6.161,6.161,0,0,1,232.543,60a3.78,3.78,0,0,1,.877,2.525,4.186,4.186,0,0,1-.883,2.646,5.862,5.862,0,0,1-2.337,1.77,7.849,7.849,0,0,1-3.172.634" transform="translate(-165.419 -38.11)"/>
    <path id="Tracé_64" data-name="Tracé 64" d="M289.129,68.47a6.6,6.6,0,0,1-5.977-3.488,7.279,7.279,0,0,1-.871-3.545V52.029h3.6v9.408a4.14,4.14,0,0,0,.384,1.793,3.138,3.138,0,0,0,1.111,1.3,3.427,3.427,0,0,0,3.5.006,3.029,3.029,0,0,0,1.093-1.291,4.282,4.282,0,0,0,.373-1.8V52.029h3.6v9.408a7.526,7.526,0,0,1-.493,2.738,6.823,6.823,0,0,1-1.406,2.243,6.491,6.491,0,0,1-2.163,1.51,6.876,6.876,0,0,1-2.763.542" transform="translate(-211.636 -39.008)"/>
    <path id="Tracé_65" data-name="Tracé 65" d="M347,68.17V52.029h6.344a4.776,4.776,0,0,1,2.505.674,5.06,5.06,0,0,1,1.784,1.8,4.771,4.771,0,0,1,.661,2.462,4.685,4.685,0,0,1-.679,2.479,5.159,5.159,0,0,1-1.808,1.787,4.748,4.748,0,0,1-2.463.668H350.6V68.17Zm3.6-9.731h2.331a1.682,1.682,0,0,0,.877-.236,1.845,1.845,0,0,0,.637-.628,1.676,1.676,0,0,0,0-1.73,1.843,1.843,0,0,0-.637-.628,1.68,1.68,0,0,0-.877-.236H350.6Z" transform="translate(-260.157 -39.008)"/>
    <path id="Tracé_66" data-name="Tracé 66" d="M400.288,68.17V52.029h10.717v3.459h-7.113v2.306h5.479v3.459h-5.479v3.459h7.113V68.17Z" transform="translate(-300.111 -39.008)"/>
    <path id="Tracé_67" data-name="Tracé 67" d="M453.675,68.17V52.029h6.849a4.776,4.776,0,0,1,2.5.668,4.976,4.976,0,0,1,1.772,1.793,4.826,4.826,0,0,1,.655,2.473,5.112,5.112,0,0,1-.361,1.931,4.837,4.837,0,0,1-1.027,1.579,5.184,5.184,0,0,1-1.568,1.1l3.989,6.595h-4.157l-3.8-6.272h-1.25V68.17Zm3.6-9.731h2.811a1.682,1.682,0,0,0,.877-.236,1.846,1.846,0,0,0,.637-.628,1.677,1.677,0,0,0,0-1.73,1.843,1.843,0,0,0-.637-.628,1.68,1.68,0,0,0-.877-.236h-2.811Z" transform="translate(-340.138 -39.008)"/>
    <path id="Tracé_68" data-name="Tracé 68" d="M512.536,68.17V52.029h6.344a4.777,4.777,0,0,1,2.505.674,5.059,5.059,0,0,1,1.784,1.8,4.773,4.773,0,0,1,.661,2.462,4.689,4.689,0,0,1-.679,2.479,5.16,5.16,0,0,1-1.808,1.787,4.748,4.748,0,0,1-2.463.668h-2.739V68.17Zm3.6-9.731h2.331a1.684,1.684,0,0,0,.877-.236,1.846,1.846,0,0,0,.637-.628,1.675,1.675,0,0,0,0-1.73,1.843,1.843,0,0,0-.637-.628,1.682,1.682,0,0,0-.877-.236h-2.331Z" transform="translate(-384.268 -39.008)"/>
    <path id="Tracé_69" data-name="Tracé 69" d="M565.827,68.17V52.029h6.849a4.775,4.775,0,0,1,2.5.668,4.978,4.978,0,0,1,1.773,1.793,4.828,4.828,0,0,1,.654,2.473,5.11,5.11,0,0,1-.36,1.931,4.838,4.838,0,0,1-1.027,1.579,5.185,5.185,0,0,1-1.568,1.1l3.989,6.595h-4.157l-3.8-6.272h-1.25V68.17Zm3.6-9.731h2.811a1.684,1.684,0,0,0,.877-.236,1.845,1.845,0,0,0,.636-.628,1.675,1.675,0,0,0,0-1.73,1.842,1.842,0,0,0-.636-.628,1.682,1.682,0,0,0-.877-.236h-2.811Z" transform="translate(-424.223 -39.008)"/>
    <path id="Tracé_70" data-name="Tracé 70" d="M629.136,67.571a7.975,7.975,0,0,1-3.208-.651,8.361,8.361,0,0,1-2.643-1.8,8.51,8.51,0,0,1-1.79-2.669,8.44,8.44,0,0,1,0-6.491,8.519,8.519,0,0,1,1.79-2.669,8.369,8.369,0,0,1,2.643-1.8,8.255,8.255,0,0,1,6.428,0,8.43,8.43,0,0,1,4.428,4.473,8.516,8.516,0,0,1,0,6.491,8.431,8.431,0,0,1-4.428,4.473,8.006,8.006,0,0,1-3.22.651m0-3.459a4.307,4.307,0,0,0,1.808-.386,4.853,4.853,0,0,0,1.5-1.061,5.012,5.012,0,0,0,0-6.929,4.849,4.849,0,0,0-1.5-1.061,4.427,4.427,0,0,0-3.617,0,4.849,4.849,0,0,0-1.5,1.061,5.012,5.012,0,0,0,0,6.929,4.853,4.853,0,0,0,1.5,1.061,4.307,4.307,0,0,0,1.808.386" transform="translate(-465.473 -38.11)"/>
    <path id="Tracé_71" data-name="Tracé 71" d="M695.261,68.17V52.029h5.575a8.454,8.454,0,0,1,3.262.628,8.558,8.558,0,0,1,2.68,1.741,8.186,8.186,0,0,1,1.814,2.571,7.813,7.813,0,0,1,0,6.261,8.182,8.182,0,0,1-1.814,2.571,8.549,8.549,0,0,1-2.68,1.741,8.449,8.449,0,0,1-3.262.628Zm3.6-3.459h1.97a4.767,4.767,0,0,0,1.838-.357,5.008,5.008,0,0,0,1.538-.992,4.612,4.612,0,0,0,1.051-1.47,4.423,4.423,0,0,0,0-3.58,4.755,4.755,0,0,0-1.045-1.47,4.882,4.882,0,0,0-1.532-1,4.8,4.8,0,0,0-1.85-.358h-1.97Z" transform="translate(-521.264 -39.008)"/>
    <path id="Tracé_72" data-name="Tracé 72" d="M41.371,0H.812A.812.812,0,0,0,0,.812V41.371a.812.812,0,0,0,.812.812H41.371a.812.812,0,0,0,.812-.812V.812A.812.812,0,0,0,41.371,0M21.091,39.81A21.23,21.23,0,0,0,2.372,21.091,21.23,21.23,0,0,0,21.091,2.372,21.23,21.23,0,0,0,39.81,21.091,21.23,21.23,0,0,0,21.091,39.81" fill="url(#linear-gradient)"/>
  </g>
</svg>
